<svg width="1024" height="1024" viewBox="0 0 1024 1024" xmlns="http://www.w3.org/2000/svg">
<rect x="0" y="0" width="1024" height="1024" rx="160" ry="160" fill="#25584D"/>
<g transform="translate(512 512) scale(0.76) translate(-512 -512)">
<path d="M521.692 641.559C513.143 631.633 500.306 626.389 486.852 626.389H193.419C179.965 626.389 167.128 632.221 158.579 642.147C150.03 652.073 145.742 664.915 148.18 677.731L157.346 730.839L197.09 957.239C200.762 978.241 219.71 994 242.329 994H440.408C463.027 994 482.591 978.241 485.646 956.65L522.925 731.991L532.091 677.143C534.53 664.301 530.858 651.459 521.692 641.559ZM529.036 694.078C529.036 699.323 524.748 703.416 519.254 703.416H487.469L482.591 732.016L446.518 950.255C445.902 953.171 443.463 954.911 440.408 954.911H242.329C239.274 954.911 236.835 952.583 236.218 950.255L197.707 731.428L192.829 702.827H167.155C161.661 702.827 157.373 698.734 157.373 693.49V660.822C157.373 655.578 161.661 651.484 167.155 651.484H518.664C524.158 651.484 528.446 655.578 528.446 660.822V694.078H529.062H529.036Z" fill="white"/>
<path d="M519.254 624.062H167.744C145.742 624.062 128 640.971 128 661.999V694.667C128 712.165 140.221 726.773 157.346 731.429C160.401 732.017 164.073 732.605 167.744 732.605H522.925C543.106 730.866 558.382 714.519 558.382 695.256V662.588C558.998 640.997 541.256 624.087 519.254 624.087V624.062ZM519.254 703.416H167.744C162.25 703.416 157.962 699.323 157.962 694.079V661.411C157.962 656.167 162.25 652.074 167.744 652.074H519.254C524.748 652.074 529.036 656.167 529.036 661.411V694.079C529.036 699.323 524.748 703.416 519.254 703.416Z" fill="white"/>
<path d="M351.753 586.713C351.753 545.859 351.753 504.442 351.137 463.587C351.137 454.838 343.177 451.334 335.245 451.922C270.442 460.671 203.817 413.984 189.747 353.892C185.459 359.137 181.788 363.818 177.526 369.062C209.928 367.886 243.562 366.146 274.73 376.072C297.966 383.67 321.201 398.84 330.983 420.994C333.422 426.238 338.327 430.331 344.437 429.743C350.547 428.566 354.835 423.91 355.452 418.077C359.123 345.143 386.62 273.361 434.914 216.185C428.187 214.446 420.844 212.681 414.117 210.941C425.132 257.628 432.448 304.878 436.736 352.741C437.969 370.828 440.408 394.184 427.571 409.354C419.021 419.868 403.129 425.112 392.114 417.514C386.62 414.01 378.044 416.338 374.989 421.608C371.317 427.44 373.756 434.45 379.277 437.954C393.347 447.292 412.295 446.115 426.954 439.131C443.463 430.97 454.451 415.8 458.739 398.865C463.617 380.19 461.794 360.365 459.972 341.101C458.149 319.51 455.094 297.919 451.423 276.328C447.751 251.821 442.873 227.902 437.353 203.983C435.53 195.822 422.077 191.729 416.556 198.738C363.974 261.184 333.422 337.622 329.751 417.566C337.71 416.389 346.259 415.238 354.192 414.649C341.971 385.46 316.297 365.634 285.718 355.12C250.878 342.867 212.983 344.043 176.294 345.195C167.744 345.783 162.224 352.792 164.073 360.365C177.526 416.977 229.492 461.899 288.157 473.564C305.872 477.069 322.997 477.069 340.738 474.741C335.244 470.648 330.34 467.143 324.846 463.076C324.846 503.93 324.846 545.347 325.463 586.201C326.695 602.548 351.753 602.548 351.753 586.79V586.713Z" fill="white"/>
<path d="M848.733 30.0256H530.858C504.567 30.0256 482.564 50.4399 482.564 76.1241V207.998C482.564 231.918 502.128 251.769 526.57 253.509V289.093C526.57 298.43 532.064 306.003 541.23 309.507C544.285 310.684 547.34 311.247 550.395 311.247C556.506 311.247 562.616 308.919 566.904 304.826L620.692 253.483H848.706C874.997 253.483 897 233.069 897 207.384V75.5101C896.384 50.4143 874.997 30 848.706 30L848.733 30.0256ZM871.969 207.998C871.969 220.252 861.57 230.178 848.733 230.178H610.32L585.262 254.097L552.244 285.614V230.178H530.858C529.625 230.178 528.419 230.178 527.186 229.59C516.172 227.85 507.622 219.075 507.622 207.998V76.1241C507.622 63.8704 518.021 53.9446 530.858 53.9446H848.733C861.57 53.9446 871.969 63.8704 871.969 76.1241V207.998Z" fill="white"/>
</g>
</svg>
