<?xml version="1.0" encoding="UTF-8"?>
<svg width="960px" height="960px" viewBox="0 0 960 960" version="1.1" xmlns="http://www.w3.org/2000/svg" xmlns:xlink="http://www.w3.org/1999/xlink">
    <title>willow-plant-sensor</title>
    <g id="willow-plant-sensor" stroke="none" fill="none" fill-rule="nonzero">
        <path d="M515.974824,5.98603559 L517.865293,6.04096674 C547.276523,6.92682043 567.016042,9.00368093 579.334851,12.7677614 L579.684986,12.8747472 C596.362417,17.970629 607.816536,33.283667 607.994169,50.7213609 L607.997899,51.0874613 L611,345.592554 L611,346 L611,441.745914 C611,447.374355 609.999661,452.958 608.045649,458.23637 L593.92682,496.375546 C579.755091,534.657617 572.5,575.153741 572.5,615.974752 L572.5,748.176816 C572.5,767.228675 560.499802,783.581457 543.5,789.867654 L543.5,911 C543.5,936.405098 522.905098,957 497.5,957 C491.285033,957 485.357938,955.767475 479.95747,953.517859 C473.111579,957.650881 465.080123,960 456.5,960 C431.094902,960 410.5,939.405098 410.5,914 L410.5,793.986611 C393.818672,787.597495 382,771.428947 382,752.5 L382,587.930484 C382,573.099508 379.793132,558.351079 375.451893,544.1697 L356.184242,481.228706 C353.505251,472.477336 352.034232,463.401036 351.811974,454.251446 L349.011795,338.971322 C349.003932,338.647608 349,338.32381 349,338 L349,51.1592283 C349,34.7129577 359.066514,19.9427863 374.373905,13.9291685 L374.691079,13.8045645 C389.341864,8.04889887 415.328843,5.92319177 460.868341,5.5649535 C467.625666,1.99986023 475.329287,0 483.5,0 L492.5,0 C501.006477,0 509.006683,2.16759997 515.974824,5.98603559 Z M462.5,775.726 L450.5,776.247 L450.5,914 C450.5,917.313708 453.186292,920 456.5,920 C459.813708,920 462.5,917.313708 462.5,914 L462.5,775.726 Z M503.5,773.943 L491.5,774.465 L491.5,911 C491.5,914.313708 494.186292,917 497.5,917 C500.813708,917 503.5,914.313708 503.5,911 L503.5,773.943 Z M422.116716,512.653703 L431.5,572.217156 L431.5,750.789232 C431.5,754.038301 434.076351,756.663831 437.264661,756.784981 L450.5,756.185 L450.5,756.229 L462.5,755.707 L462.5,755.643 L491.5,754.331 L491.5,754.446 L503.5,753.924 L503.5,753.789 L528.20331,752.672221 C530.607076,752.563508 532.5,750.583039 532.5,748.176816 L532.5,615.974752 C532.5,570.414001 540.597482,525.21586 556.414694,482.488845 L564.980746,459.349355 C565.86995,455.084361 562.614704,451 558.178486,451 L483.999565,451 C458.073002,451 434.695062,466.605631 424.75213,490.549833 C421.852026,497.533758 420.939934,505.183696 422.116716,512.653703 Z M460.97097,674.393548 C466.451479,672.707237 472,676.805234 472,682.53931 L472,738.149904 C472,739.747044 470.748688,741.06417 469.153644,741.145967 L455.653644,741.838275 C453.938692,741.926221 452.5,740.559418 452.5,738.842212 L452.5,685.862896 C452.5,680.594838 455.93587,675.942809 460.97097,674.393548 Z M501.97097,673.393548 C507.451479,671.707237 513,675.805234 513,681.53931 L513,737.149904 C513,738.747044 511.748688,740.06417 510.153644,740.145967 L496.653644,740.838275 C494.938692,740.926221 493.5,739.559418 493.5,737.842212 L493.5,684.862896 C493.5,679.594838 496.93587,674.942809 501.97097,673.393548 Z M571.001291,434.226794 L571.001291,350.415099 L569.960527,350.339568 C552.707522,349.118196 523.003941,348.5 481.008287,348.5 C437.578453,348.5 406.958344,349.160905 389.302008,350.467985 L391.800179,453.280124 C391.933975,458.788055 392.819514,464.251898 394.43224,469.520135 L402.506456,495.895912 C403.273888,491.450551 404.535497,487.084043 406.281343,482.879761 C419.32405,451.470792 449.990221,431 483.999565,431 L558.178486,431 C562.871014,431 567.222955,432.177914 571.001291,434.226794 Z M454.692387,45.6414676 L451.575547,45.6885599 C417.723143,46.2394117 397.00046,48.0161902 389.317174,51.0346243 L388.999674,51.1592283 L388.999674,330.437813 C407.420789,329.141333 438.042165,328.5 481.008287,328.5 C523.00899,328.5 552.902239,329.11262 570.841383,330.352391 L567.999974,51.4949069 L567.996245,51.12881 L567.646109,51.0218242 C559.854925,48.6411846 544.438865,47.0327665 521.365025,46.1930793 C521.454608,47.1165942 521.5,48.0529962 521.5,49 L521.5,224 C521.5,235.045695 512.545695,244 501.5,244 L474.5,244 C463.454305,244 454.5,235.045695 454.5,224 L454.5,49 C454.5,47.8640512 454.565312,46.743357 454.692387,45.6414676 Z M477.360496,42.4192961 L477.109823,42.6624964 C477.086609,42.6857569 477.062062,42.7107833 477.037661,42.7359518 C476.940125,42.8367111 476.84498,42.9395301 476.752247,43.0445301 C476.664565,43.1436362 476.579568,43.2442192 476.496773,43.3466555 C476.330514,43.55257 476.17263,43.7664829 476.024274,43.9873319 C475.907375,44.1609679 475.796313,44.3393805 475.691461,44.5218156 C475.511429,44.8356398 475.3498,45.1606579 475.207929,45.4960691 C474.75184,46.573539 474.5,47.7573593 474.5,49 L474.5,224 L501.5,224 L501.5,49 C501.5,47.8266912 501.275479,46.7058222 500.867056,45.6780132 C500.18719,43.9784704 499.010915,42.533346 497.514866,41.5264342 C497.482354,41.5036633 497.449435,41.4818444 497.416366,41.4602372 C497.003611,41.1910948 496.567426,40.954231 496.111426,40.7541218 C496.006451,40.7078368 495.900193,40.6636466 495.79293,40.6214567 C495.6469,40.5641754 495.499752,40.5106857 495.350869,40.4609834 C495.303405,40.445044 495.255725,40.4295768 495.207873,40.4144987 C495.071395,40.371561 494.933406,40.3316793 494.794095,40.2950547 C494.149757,40.1256782 493.477454,40.0260025 492.785465,40.0044413 L492.5,40 L483.5,40 L483.21755,40.0043479 C482.606536,40.0231841 482.010859,40.1029224 481.436383,40.2376964 C481.17756,40.2984153 480.922926,40.3703428 480.673136,40.4529151 C480.373675,40.5519002 480.081165,40.6661941 479.796544,40.7948621 C479.555762,40.9037213 479.320462,41.0229484 479.091379,41.1519162 C478.668325,41.3900668 478.266686,41.6612872 477.889753,41.9621563 C477.707258,42.1079031 477.530755,42.2603702 477.360496,42.4192961 L477.360496,42.4192961 Z" id="Shape" fill="#000000"></path>
    </g>
</svg>